PathFileType	4	(X/Y/Z)	OpenSim_Sub05_CSStiffKnee_Gyro.trc
DataRate	CameraRate	NumFrames	NumMarkers	Units	OrigDataRate	OrigDataStartFrame	OrigNumFrames
100	100	13	8	m	100	7031	11248
Frame#	Time	torso_imu_offset_imu	pelvis_imu_offset_imu	tibia_r_imu_offset_imu	femur_r_imu_offset_imu	tibia_l_imu_offset_imu	femur_l_imu_offset_imu	toes_r_imu_offset_imu	toes_l_imu_offset_imu
				X1	Y1	Z1	X2	Y2	Z2	X3	Y3	Z3	X4	Y4	Z4	X5	Y5	Z5	X6	Y6	Z6	X7	Y7	Z7	X8		Y8	Z8	

7031	70.30000000	-0.19756447	0.04250697	-0.02620614	-0.44922591	-0.73546626	0.20882149	-0.19715184	-0.00606763	-1.55251530	-0.38568036	0.34934792	0.09197486	0.11218093	-0.27308111	0.01077930	0.08348949	-0.15300606	-0.44466610	-0.07899343	-2.08518482	-0.33571510	-0.72991944	-0.53847035	-0.02345259
7032	70.31000000	-0.24179222	0.05792690	-0.05655029	-0.42426362	-0.72471390	0.30049785	-0.21298084	-0.02986118	-1.67099878	-0.50318518	0.36104779	0.24044109	0.06464895	-0.35058992	0.22740745	0.13149766	-0.27111143	-0.38500625	-0.09021460	-2.41814966	-0.33842433	-0.80629462	-1.25008152	0.08027959
7033	70.32000000	-0.30416967	0.08949279	-0.07149359	-0.39822950	-0.66610291	0.39332424	-0.25034606	-0.05996791	-1.80442121	-0.63700505	0.44181704	0.40886301	0.07184091	-0.33758795	0.62158738	0.30631210	-0.28955934	-0.31406241	-0.12267154	-2.80146053	-0.34585170	-1.01755395	-2.01569167	-0.06775626
7034	70.33000000	-0.36703486	0.10131894	-0.07328760	-0.38888976	-0.56607173	0.48295532	-0.37454304	-0.13669180	-1.97514761	-0.73641488	0.51345193	0.60554610	-0.09886535	-0.28723966	1.16524704	0.47381319	-0.25699194	-0.24316363	-0.17310474	-3.23200634	-0.36553125	-0.74843057	-3.07280891	0.00726706
7035	70.34000000	-0.39721978	0.11674194	-0.05804201	-0.40035072	-0.43412031	0.56200811	-0.60171264	-0.22698438	-2.17412858	-0.73654482	0.56539650	0.83581021	-0.29735201	-0.34601802	1.98838660	0.57680151	-0.24498964	-0.20997196	-0.25736451	-3.70897674	-0.36637630	-0.06860617	-2.56917594	0.36015925
7036	70.35000000	-0.38699553	0.13517618	-0.04249861	-0.44462863	-0.29312228	0.59759101	-0.81275791	-0.30410881	-2.32742907	-0.65133472	0.67388118	1.10111904	-0.58184198	-0.52094501	2.45170006	0.62965113	-0.25757351	-0.23022115	-0.31319108	-4.23763133	-0.33371169	-0.73485276	-0.46628548	0.75592857
7037	70.36000000	-0.38740597	0.11142010	-0.04784978	-0.51663040	-0.17109256	0.54487011	-0.93201472	-0.36302287	-2.47013416	-0.48510904	0.77985991	1.41259724	-0.36470806	-0.58332645	1.76913715	0.58878634	-0.24696944	-0.26114380	-0.72492240	-4.78120555	-0.23076544	-0.16322890	-0.21898366	0.94939435
7038	70.37000000	-0.43152560	0.03064082	-0.05946476	-0.54647741	-0.10973461	0.36074518	-0.95993722	-0.34609421	-2.63730193	-0.43203612	0.89503157	1.74425076	0.60116145	-0.24918981	1.04112899	0.51533462	-0.15328572	-0.16758989	-1.03367306	-5.20308785	-0.20745166	-0.14041415	-0.82296675	0.52803717
7039	70.38000000	-0.54238576	-0.05130073	-0.10552682	-0.49715358	-0.15858137	0.03765706	-0.76921079	-0.28071229	-2.70433373	-0.58170111	1.02121244	2.07581597	0.16991249	-0.09329170	1.00986940	0.42464604	-0.00606641	0.02702747	-0.65883125	-5.50262956	-0.31571828	-0.79203261	-0.55665933	0.05113300
7040	70.39000000	-0.67864723	-0.10286488	-0.16078034	-0.43436552	-0.27465942	-0.34028343	-0.14563736	-0.28897276	-2.71019740	-0.34148132	1.17096305	2.34396672	-1.22739601	-0.30373576	1.18289853	0.14725597	0.10091287	0.20092589	-0.64378020	-5.61664503	-0.48269210	-0.33887965	-0.38324432	0.06801986
7041	70.40000000	-0.78471457	-0.09991399	-0.22247671	-0.39005309	-0.35981932	-0.67184810	0.64558622	-0.37392429	-2.77590681	0.09136487	1.40736409	2.41366091	-1.31013130	-0.38249702	1.29145571	-0.25879355	0.05568331	0.29479074	-0.57971259	-5.41582631	-0.78044356	0.06203371	-0.26604652	0.07819233
7042	70.41000000	-0.79489424	-0.07224780	-0.32252795	-0.35412848	-0.36242356	-0.90447669	1.08513833	-0.45858819	-2.81819861	-0.01405365	1.55036933	2.41721726	-0.35442880	-0.30939304	1.16265488	-0.50894888	-0.03231684	0.31443367	0.04058919	-4.94506859	-1.13353826	0.05145318	-0.13971047	-0.01058230
7043	70.42000000	-0.69042385	-0.04643845	-0.44486036	-0.32064697	-0.27917908	-0.98017216	1.22587397	-0.55253482	-2.70943138	-0.14678687	1.52842659	2.40115968	0.20307135	-0.28029121	0.96698153	-0.75817669	-0.03909656	0.30622758	0.38352646	-4.54813070	-1.27944664	0.01045719	-0.08069773	-0.03579749
